<svg xmlns="http://www.w3.org/2000/svg" viewBox="0 0 496.13 1128.58"><defs><style>.cls-1{fill:#a56147;}.cls-2{fill:#ebe6c9;}.cls-3{fill:#7a9ca7;}.cls-4{fill:#26202c;}.cls-5{fill:#7b9ca7;}.cls-6{fill:#7b9da7;}.cls-7{fill:#64858f;}.cls-8{fill:#7b3e26;}.cls-9{fill:#a75b3e;}.cls-10{fill:#010101;}.cls-11{fill:#20406d;}.cls-12{fill:#844329;}.cls-13{fill:#854329;}.cls-14{fill:#ece7cb;}.cls-15{fill:#87452b;}.cls-16{fill:#a85d41;}.cls-17{fill:#f66c38;}.cls-18{fill:#e1e5e0;}.cls-19{fill:#64858e;}.cls-20{fill:#f67137;}.cls-21{fill:#fefedc;}.cls-22{fill:#fdfddc;}.cls-23{fill:#f7f8d8;}.cls-24{fill:#a8543e;}.cls-25{fill:#8b4027;}.cls-26{fill:#7a3e26;}.cls-27{fill:#fcfcda;}.cls-28{fill:#edecce;}.cls-29{fill:#f4f4d4;}.cls-30{fill:#ebe8c9;}.cls-31{fill:#19355c;}.cls-32{fill:#7b3f27;}.cls-33{fill:#844228;}.cls-34{fill:#c16f50;}.cls-35{fill:#db5c2c;}.cls-36{fill:#27202c;}.cls-37{fill:#8a482f;}.cls-38{fill:#e8e4c6;}.cls-39{fill:#753322;}.cls-40{fill:#964d31;}.cls-41{fill:#863b29;}.cls-42{fill:#8a452b;}.cls-43{fill:#bb6b4d;}.cls-44{fill:#763d28;}.cls-45{fill:#7c3e26;}.cls-46{fill:#753d28;}.cls-47{fill:#28212c;}</style></defs><title>Auntie Betty</title><g id="Layer_2" data-name="Layer 2"><g id="Layer_1-2" data-name="Layer 1"><path class="cls-1" d="M445.72,234.79c0,2.25-1.37,3.91-2.69,5.69.42-1.94-1.31-4.3,1.45-5.79Z"/><path class="cls-2" d="M125.85,874c2.3-2,6.9.5,8-4-1.19-1.5.21-3.52-1-5h0c-.93-1.38-.32-2.94-.48-4.41.9-1.48,1.63-.52,2.18.26,1.19,1.65,1.29,3.74,2.34,6.2-.22-4.68-2.25-8.14-3.43-11.84-6.87-21.5-19.82-39.21-34.5-55.9-4.37-5-8.6-10.07-12.49-15.43-.47-4-3.76-5.68-6.37-7.93a9.32,9.32,0,0,1-3.23-3.65c-5.75-7.29-11.82-14.33-17-22-3.89-5.78-7.59-11.73-12.34-16.89C27.62,701.85,11.69,668.69,5.19,631.7c-3.45-19.58-3.26-39.35-1.91-59.18.85-12.47,1.62-24.9,4.66-37,4.51-18,12.37-34.78,19.81-51.66,5.7-12.92,11.44-25.89,19-37.92,1.76-2.81,3.34-6.62,8-4.62q13.76,7,27.41,14.21c4.66,2.47,7.54,5.66,8.78,11.17,4.44,19.77,9.61,39.38,17.54,58.1,4.87,11.49,12.45,20.33,25.15,23.59,5.7.71,11.4,1.11,17.05-.34,6.42-2.06,13-1.06,19.56-1.19,2.25,1.91.41,3.54-.42,5.16-8.55,16.76-11,34.2-3.38,51.71,5,11.38,12.77,20.88,25.07,25.62,3.32,1.29,7,2.32,9.17,5.61,2.66,10.85,2.92,22,4.43,33,5.19,37.86,6.37,76.12,11.72,114,2.6,18.39,3.12,37.07,4.48,55.63.48,6.63.65,13.29,1.4,19.9a14,14,0,0,1-.52,6.4c-2.1,5.95-2.64,6-8.89,6.71a265,265,0,0,1-40.8,1.86c-7.62-.27-15.19-1.61-22.87,0-5.52,1.14-11,2.52-16.55,3.5-2.33.41-4.6.81-6.83-.33A1.09,1.09,0,0,1,125.85,874Z"/><path class="cls-3" d="M170.65,547.48c-6.5,1.81-13.34-.22-19.84,1.73a77.07,77.07,0,0,1-18,.14c-14.64-3.65-21.89-14.48-27-27.53-7.45-18.91-12.44-38.51-16.94-58.26-.61-2.67-2.18-4-4.26-5.09-9.1-4.81-18.24-9.56-27.35-14.36a24.27,24.27,0,0,1-2.43-1.66c-3.24-2.06-5-4.81-4.09-8.8,1.64-5.67,5.56-10.13,8.1-15.33,3-6.13,7.41-11.33,11-17.07a15.38,15.38,0,0,1,3.92-3.92l.12-4c-1.36-2.22.24-4.85-1-7.1l0,.07c-1.56-2.93.25-6.24-1-9.21a.7.7,0,0,0,0-.75c-1.38-2.95.28-6.23-1-9.2a.77.77,0,0,0,0-.79c-1.37-3.65.3-7.56-.95-11.22-.05-.93-.09-1.87-.14-2.81-1.17-4.68.35-9.52-.85-14.2,0-1.92-.07-3.85-.11-5.77a89.4,89.4,0,0,1,.09-21,.71.71,0,0,0,0-.77c1.26-3.31-.44-6.91,1-10.21,0-3.88,1.9-7,3.94-10.13A39.55,39.55,0,0,1,79,283.5l0,.06c1.61-3,4.28-4.94,6.71-7.14q2.08-2,4.15-3.95c1.8-1.15,3.18-2.81,4.92-4a131.39,131.39,0,0,1,20-13.17,3.72,3.72,0,0,1,1.35-1.27c1.4-.52,2.32-1.07.56-2.32,2.13-2.15,4.8-2.35,7.59-2.13,14.94,3.72,24.46,14.67,33.78,25.71,5,5.95,8.5,13,12.93,19.43,6.37,9.18,11.5,19.37,20.48,26.54,1.93,4.39,3.63,8.92,9,10.44,3.87,1.11,7.5-.14,11.2-.84a7.37,7.37,0,0,1,4.23,1.33c.8,1.69-.08,3.25-.39,4.85-1.28,6.68.6,11.1,6.18,14.45,3.7,2.22,8.24,1.65,12-1.49,4.2-3.48,5.48-8.72,3.55-14.45-.53-1.56-1.4-3.05-1.1-4.8a19.21,19.21,0,0,1,5.75-7.62,2.93,2.93,0,0,1,1,0c8.62,1.94,11.25.66,13.66-6.66,2.17-6.59-.32-11.59-7.26-14.55-1.05-.44-2.22-.63-3-1.58-1.26-3.4-2.77-6.75-2.06-10.53.93-1.5,2.53-1.36,4-1.65,4.89-1,7.56-4,7.95-8.84.29-3.66-3.25-8.92-6.87-10.15a6.11,6.11,0,0,0-5.27.64c-1.39.82-2.51,2.29-4.43,1.87-2.57-2.56-3.13-5.77-3-9.19,1.13-1.07,2.49-.59,3.8-.56,4.12.08,7.14-1.75,8.55-5.59s.6-7.08-2.48-10c-3.25-3-6.75-3.17-10.61-1.73-1.5.56-2.4,2.46-4.38,1.94-1.75-1.36-2-3.05-1.12-5a16.62,16.62,0,0,1,7.88-3.47c12.51,3.49,25.09,5.42,37.93,1.72a31,31,0,0,1,4.71.65c1,.26,1.88,1,2.8,1,6.72-.3,7.64,4.28,9,9.45,2.8,10.68,1.44,21.45,1.69,32.19.06,2.53-.18,4.79-3.09,1.54-.9-1-1.82-1.93-2.7-2.93-8.25-9.22-18.35-16.34-27.62-24.39a1.55,1.55,0,0,0-2-.29c.71,2.31,2.7,3.55,4.34,5.11,6.27,5.93,12.63,11.83,19.31,17.23,7.51,6.08,12.26,14,16.92,22a511.51,511.51,0,0,1,23.44,45.73c4.78,10.49,6.05,21.75,4.95,33.21-.48,5-3,9.19-6.52,12.63-9.56,9.35-20.36,16.55-33.84,19.05-4.81.9-9.6.38-15.64.44A19.09,19.09,0,0,0,282.27,415c14.36-.62,28.2,12.29,30.12,28,.26,2.12,0,4-1.85,5.36-8.09,1.24-16.2,2.05-24.38.83-5.21-3.89-11-4.08-17.13-2.87-17.94,3.53-36.23,5.25-54,9.69-13.55,3.4-27.16,6.64-40.55,10.7-3.89,1.18-7.18,3.49-10.93,4.86-4.72,1.74-5.56,1.18-6.11-3.62-.93-8.09-2.82-16-3.94-24.11a81.89,81.89,0,0,1-.77-17.41c.35-4.65.63-4.29,5.13-3.69,18,2.4,35.5,1.05,51.13-9.6,1.41-1,3.08-1.89,3.47-3.89a2,2,0,0,0-2.27.75c-9.51,9-21.72,10.24-33.83,11.53-3.63.38-7.27.84-10.92,1-8.65.49-12.88-3.64-13-12.27-.28-16,.31-31.94,1-47.9a14.79,14.79,0,0,0-.59-6.23c-1.33,2.93-1.58,5.52-2.31,7.95-.46,1.51-.36,3.93-2.25,4-2.12,0-2.55-2.37-2.9-4.1-1.53-7.38-4.49-14.28-7.15-21.28-.93-2.44-1.39-5.15-3.69-7.46-1.72,2.51-.27,4.51.44,6.55,4.36,12.55,10.35,24.55,12.59,37.83a59.58,59.58,0,0,1,.46,12.44c-.05,1.14-.13,2.58-1.36,3-1.68.59-2.3-1-2.91-2.09-4.39-7.64-8.87-15.23-13.57-22.7-4.53-7.22-10.05-13.56-16.57-20.72.53,3.44,2.09,4.94,3.28,6.59a245.85,245.85,0,0,1,32.32,61.17,26.56,26.56,0,0,1,1.85,9.77c-.4,11.91,1.61,23.53,3.76,35.15.46,2.47.2,5,.34,7.48a9.74,9.74,0,0,1-5,9.61,18.87,18.87,0,0,0-8,8.76c2-.92,3.09-2.87,4.7-4.22,12.57-10.57,27.33-16.26,43.25-19.32a4.81,4.81,0,0,1,3.86.51c5.91,10.24,10.45,21,11.69,32.87.79,7.47-.8,14.76-2.92,21.9a7.59,7.59,0,0,1-3.82,3.08c-11,4.35-18.78,12.29-25.1,22C173.12,546,172.61,547.71,170.65,547.48Z"/><path class="cls-4" d="M124.88,250.85a10.87,10.87,0,0,0-8,1.58,2.93,2.93,0,0,1-2.13,1.13c-11.87.73-23.65,2.74-35.6,2.34a1.91,1.91,0,0,1-1.24-.69l.12.07c-14.38-2-23.68-10.4-29.08-23.37-6.4-15.4-5.35-30.12,5.08-43.64a35.21,35.21,0,0,1,11.11-9.06c5.47-3,9.93-7.18,14.15-11.67a22.31,22.31,0,0,0,6.08-11.77,122.7,122.7,0,0,0,1.75-22.22c-.44-18-1.86-36.24,3.5-53.86a71.79,71.79,0,0,1,14.52-26.91l-.08.09c2.55-4.37,6-7.67,11-9.09l-.11.07c1.46-1.29,3.36-1.47,5.1-2.08l0,0c4.72-5.47,8.63-11.61,13.83-16.67,3.42-3.31,7.33-5.42,12.27-5.59a54.07,54.07,0,0,0,15-2.83l3.7-2A144.51,144.51,0,0,1,193.84,3.68h-.05c1.89-1.15,4.05-1.44,6.16-1.91l-.12.06a53.19,53.19,0,0,1,27.83,0l-.12-.07c2.38.64,4.9.82,7.11,2.06l-.12-.07c12.62,3.3,21.82,11.28,29,21.72,3.25,4.73,6.33,9.67,8,15.27l-.06-.1c2.33,4,3.46,8.57,4.8,13,1.79,5.89,5.42,10.53,9.27,15.1l-.05-.05c5.44,3,11.44,4.91,16.8,8.1,1.51.9,3.32,1.49,4.22,3.21l3.86,2.65c7,4,10,10.29,10.73,18a12.07,12.07,0,0,0,.46,3.43,4.59,4.59,0,0,0-.29.69c0,.06.19.18.29.27-1,2.06.27,4.47-1,6.5l0,0c-1,5.2-3.28,9.92-5.53,14.67-3.69,7.81-2.62,14.53,2.54,18.9,1.51,1.27,3.7,1.25,4.88,3,2.34.47,4.49,1.77,7,1.55,8.31,1.69,14.73,5.86,18.14,13.93a5.42,5.42,0,0,0,1.73,3.1c2.19,2.27,3.08,5.21,4.15,8.05l0-.09c5.71,12.44,4.9,24.72-1,36.86l0-.08c-.9,1.61-.61,3.8-2.41,5L346.5,223c-1.42,3.34-4.16,5.42-7,7.37l-4.79,3c-9.87,4.27-20.49,5-30.95,6.39-2.88.38-5.81-1.08-8.71-1.67a15.16,15.16,0,0,0-7.41.3,23.12,23.12,0,0,0-5.73,1.74c-1.69.14-3.31,1-5.06.54-12.21,4.58-24.36,1.93-36.52-.33a3.73,3.73,0,0,1-2.77-1.89,3.6,3.6,0,0,1-.47-2.34c-.1-6.06-2.45-8.64-8.44-9.32a24.73,24.73,0,0,1-3.92-.42,3.94,3.94,0,0,1-1.37-.73c-2.06-2.92-3.94-5.86-1.23-9.39a27.43,27.43,0,0,1,6.49-3.53c9.64-4.31,16.07-11.88,21.42-20.6,1.16-1.89,1.75-4.47,4.76-4.39a7,7,0,0,1,2.67,1.23c6.64,4.13,10.2,4.06,14.75-.25a14.18,14.18,0,0,0,3-17.23c-1.5-2.87-4.35-4.51-6-7.18.91-4.86,4.31-8.77,4.83-13.89a27.08,27.08,0,0,0-1.11-12.22c-2.54-7-9.69-9.1-15.69-4.6a21.27,21.27,0,0,0-4.93,5.55c-2,3.08-3.95,3.31-5.79-.18-2.89-8.35-2.23-17-2-25.58a66.94,66.94,0,0,0-.67-12.34c-1.56-7.46-4.23-14.37-10.15-19.54-6.51-5.69-13.81-7.28-21.71-3.31-5.68,2.85-11.26,2.09-17,.53A15,15,0,0,1,184.4,69a68.76,68.76,0,0,1-2.85-11.1C178.16,41,163.39,36.23,150.19,47.7c-11.73,10.17-17.43,23.51-18.76,38.48-.83,9.39-1.67,18.86-1.36,28.37.15,4.67.93,9.25,1.1,13.9,0,3.16.05,6.32-.06,9.48-.2,5.18-1.37,6-6.09,4.17a26.85,26.85,0,0,0-6.66-2c-8-.86-12.92,4.52-11.46,12.33,1.54,8.26,5.16,15.76,8.32,23.43-.07,1.83-1.49,2.89-2.46,4.19-5.63,7.54,13.64,16.61,16.19,15.92,1.85.19,2.81,1.58,3.88,2.85,7.86,9.28,17.64,16,28.55,21.08,1.5.7,3.15,1.13,4,2.72,1.59,7.25-3.29,10.9-8.08,14.62-6.65,4.91-14.26,8-21.55,11.79C132.36,250.76,128.77,251.75,124.88,250.85Z"/><path class="cls-5" d="M392.55,408.31a9.13,9.13,0,0,0,2.35.55,11.48,11.48,0,0,0,4-.91c3.75-1.64,5.58-5,7.3-8.35,1.62-3.22,3-6.61,5.5-9.29a11.16,11.16,0,0,1,1.6-1.15c1.75-1,3.44-.21,5.14.18,2,.33,3.9.35,5.52-1.14,1.85-1.06,3.86-.3,5.8-.5,2.71-.28,5.63.74,8.06-1.3.31-2.65,2.73-5.2.36-8l-.74-2.07C426.67,374.21,418.26,368,411,360.3c-4.88-5.18-10.79-8.2-17.2-10.68-2.15-.83-4-.66-5.26,1.33-5.79,9.13-11.6,18.25-13.19,29.29-.64,4.42-1.25,8.84-.18,14.28-2.15-1.93-2-3.36-2.38-4.62-.26-.94-.36-2.22-1.44-2.38-1.49-.23-1.8,1.26-2.19,2.28a42.83,42.83,0,0,0-1.57,6.81c-.41,2-.24,4.21-2.31,6.55a51.11,51.11,0,0,1,4.88-21c1.11-2.45,1.56-4.67-.31-7-3.89-4.8-6.42-10.57-10.45-15.22-15.17-17.5-27.07-37.52-42.68-54.67-5.38-5.91-9.84-12.59-15.26-18.47-1-1.06-1.95-2.92-3.51-2.33-1.78.66-1.44,2.8-1.48,4.43-.12,4.32.93,8.59,3.78,11.63,6.09,6.5,9.29,14.46,12.87,22.33,5.41,11.91,13.05,22.88,15.26,36.13,2.16,13,3.63,25.9-7.08,36.42-2,1.95-1.88,3.72-.29,6.12,3.95,6,7.9,12,12.14,17.7,3.87,5.24,8.8,9.83,15.58,11.5a13.23,13.23,0,0,0,3.17-2.38c10.68-8.75,22.13-15.93,36.2-17.75,1.31-.17,2.68-.27,3.61-1.44Z"/><path class="cls-4" d="M162.73,1086.83c.49-10,3.63-19.46,6.21-29,1.29-.89,2.13-2.88,4.25-1.75,2.35,6,2.24,12.67,5.12,18.64,1.86,3.87,3.7,7.78,5.69,11.59,3.38,6.47,8.21,8.07,14.95,5,8-3.72,12.49-10.67,15.89-18.41,2-4.55,3.47-9.33,5.16-14,1.34-1.92,1.83-4.38,3.78-5.91,3.41-2,6.36.19,9,1.86a50.76,50.76,0,0,1,9.25,7.17,17.31,17.31,0,0,0,12.51,5.22c10.15.13,20.26,1,30.4,1.18,5-1,10.09.37,15.14-.08a4.43,4.43,0,0,1,3.45,1.59c2.78,1.22,5.49,3.25,8.36,3.52,8.09.77,8.2,7.61,10.53,12.78a2.35,2.35,0,0,1-.82,2.67c-6.47,7.66-15.2,8.59-24.41,8.41-7.8-.15-15.61-.06-23.41,0-3.37,0-6.76-.18-9.72-1.75-6.19-3.28-13.13-4.58-19.31-7.9-5.94-3.18-12.53-2.46-19.2-2.34-.47,2.46,1.87,4.15,1.18,6.32-2.2.08-3,1.19-3.09,2.78a9.72,9.72,0,0,1-.28,1.86c-.09.33-.16.65-.22,1a22,22,0,0,1-2.19,6.58c-1.68,3.15-3.35,6.3-5.09,9.41-7.33,13.11-23.34,17.9-36.73,14.27-5.95-1.61-7.82-6.85-10.1-11.31a67.5,67.5,0,0,1-6.31-17.28A33.72,33.72,0,0,1,162.73,1086.83Z"/><path class="cls-6" d="M125.86,875.14c9,.05,17.44-3.57,26.35-4.47,5.68-.57,11.18,0,16.79.13,13.74.43,27.54.83,41.19-1.64.81-.15,1.67,0,2.48-.18,2.18-.43,5.89,1.2,6.3-.85.68-3.43,3.79-6.09,2.48-10.27-1.79-5.69-.84-11.82-1.42-17.75-1.57-16-2-32.05-3.38-48-1.09-12.32-3.17-24.54-4.54-36.84-1.3-11.66-2.3-23.35-3.34-35-1.44-16.12-2.16-32.28-4.69-48.32-2-12.38-2.86-24.92-4.23-37.39,1.7-.82,2.89-.13,3.83,1.29,2.69,7.48,2.37,15.41,3.47,23.13,6.18,43.17,8.07,86.78,13.63,130,2.56,19.9,3.7,40.06,4.53,60.17,0,.34,0,.67.05,1,.63,9.79.52,9.13,10,7.55,24.08-4,47.83-10.5,72.52-10.2,2.33,0,4.65.09,7,.31,4.81.46,5.52-.31,4.8-5.26s-1.84-9.82-2.86-14.69c-2.07-9.87-2.09-19.91-2.33-29.82-.37-14.79-1.49-29.57-1.29-44.38.12-9-.22-18-1-26.92-.84-10.15,1.28-20.23,1-30.4-.61-19.78-2.25-39.5-2.79-59.27-.55-20.14-2.94-40.12-4.38-60.18A205.23,205.23,0,0,1,306,546c1-12.81-.4-25.59-1.88-38.33a10.86,10.86,0,0,0-2-5,7.18,7.18,0,0,1-.74-4.9c1.26-1.67,2.7-1.74,4.29-.46,1.15,2,3.46,3.32,3.22,6,1,3-.4,6.14.8,9.08.87,13.85,1.29,27.72.95,41.59-.07,12.6,1.46,25.07,2.78,37.56,1.72,16.33,2.76,32.69,3.33,49.1.42,12.25.09,24.52.88,36.76l.27,67.74c.59,11.38,1.41,22.74,1.8,34.13.66,18.89,1.67,37.75,4.3,56.49.25,1.78-.3,3.68.69,5.36l.23,5.89c1.7,2.06,4.52,2.36,6.45,4.14a11.31,11.31,0,0,1,3.16,6.36c.51,3.72-.19,7.48.44,11.2a5.3,5.3,0,0,1,.25,1.68,272.66,272.66,0,0,1,.25,38.77c-.22,4.19-2.3,7-5.88,9.17-6.56,4-13.5,6.69-21.21,6-12.49-1.08-24.83,1.13-37.27,1.11-8.65,0-17.2-1.59-25.85-1.13-1.49.08-3-.1-4.48.08-9.78,1.16-10.06-.22-12.25,9.48-.45,2-1.62,3.64-2.25,5.53a6,6,0,0,1-4,3.41c-3.66.6-7.25-.5-10.91-.43-12.1.23-24.12,1.64-36.18,2.45a5.88,5.88,0,0,1-3.51-.37c-10.7,1.28-21.52,1.51-32.17,3.33-3.26.41-6.6.5-9.77,1.29-9.52,2.36-18.23.11-26.67-4.16-3.14-1.59-3.87-5-4.83-7.73a109.31,109.31,0,0,1-5.43-27c-.64-7.6,1.12-15.19.34-22.47-.5-4.62.32-5.28,3.79-5.88,5.47-3.49,11.81-3.79,17.94-4.88l4-1A22.61,22.61,0,0,1,125.86,875.14Z"/><path class="cls-7" d="M437.43,376.35c-2.74,2-5.11.09-7.45-.88A53.47,53.47,0,0,1,410,361c-4.74-5.43-11-7.87-17.2-10.61-1.54-.68-2.33-.38-3.22,1-6.91,11-13.22,22.14-13.88,35.53a14,14,0,0,0,.61,4.91c.46,1.48,1.19,3.58-1.06,4.22-2.74.78-2.69-1.9-3.23-3.42-.49-1.36-.39-2.92-.61-4.87-2,3.51-2,7-2.72,10.36-.33,1.45-.61,2.9-.93,4.35s-.88,2.78-2.51,2.57c-2.23-.29-1.65-2.29-1.48-3.59.89-6.75,2.07-13.45,5.17-19.6,1.21-2.41,1.33-3.95-.44-6.55-14.16-20.85-30-40.43-45.34-60.38a357.79,357.79,0,0,0-25.2-30c-.89,7,.64,12.82,5.37,17.54s7.29,11,9.55,17.24c3.54,9.83,10.39,18,13.7,28.06,4.11,12.49,6.08,25,3,37.88-1.07,4.51-4.45,7.68-7.59,10.87-1.31,1.34-1.63,1.88-.16,3.81,4.29,5.67,7.83,11.9,11.84,17.79,3.72,5.46,9.58,8.45,14.75,12.21.55,3.65-2.07,4-4.6,4.38-9.09-5.94-15.57-14.24-21.23-23.33-1.57-2.52-2.66-5.93-5.29-7.07-3.19-1.37-4.69,2.92-7.47,3.87s-4.87,2.83-7.45,4c-4.16,1.91-4.25,2.79-.3,5.51a42.91,42.91,0,0,1,9,7.87c4.69,5.69,7.94,11.91,6.08,19.68-1.37,3.08-3.36,4.2-6.37,2,1.57-5.65-3.47-18.55-8.54-22.71-6.61-5.42-13.62-9.21-22.62-8.34-2.48.24-5.13-1.06-7.65-1.83-1.11-.34-2.23-1.15-1.69-2.58.49-1.28,1.64-1.47,2.93-1.19,10.63,2.31,20.3-.71,29.72-5.31,7.13-3.47,13-8.67,18.42-14.21,7.71-7.85,5.93-18,4.87-27.42-1.48-13.11-8.47-24.27-14.21-35.84a387,387,0,0,0-20.54-37c-4-6.26-10.06-10.41-15.3-15.39-5.53-5.24-11.48-10-17-15.28-1.35-1.27-4.12-3.41-2.37-5.13s4.31.41,6,2c10,9.37,21.83,16.64,30.69,29a76.61,76.61,0,0,1,0-15.88c.61-8.59-1.44-17.06-3.7-25.38-.36-1.32-1.09-2-2.56-1.53-2.53.86-4.5-.36-6.41-1.77-.6-1.18.63-1.54,1-2.27a6.55,6.55,0,0,1,4.95-1.73c1.69.65,4-.59,5.14,1.73,2,1.24,1.34,3.78,2.66,5.34a4.82,4.82,0,0,1,1.72,4.32A109,109,0,0,1,299.22,278a4,4,0,0,0,2.09,3.68,5.42,5.42,0,0,1,1.31,1.93c10.11,12.66,20.54,25.05,31.56,36.92a10.68,10.68,0,0,1,3.37,4l-.06-.07a15.83,15.83,0,0,1,3.08,4.17l3.69,4.86c2.14,1.52,3.08,3.91,4.32,6.09l.62.91c3.36,2.67,5.23,6.44,7.4,10,4.54,6.66,9.06,13.33,13.64,20,1.44,2.08,2.13,1.88,3.68-.45,3.92-5.9,6.35-12.54,9.89-18.61,2.25-3.85,4.5-7.45,9.6-7.58a42.65,42.65,0,0,0,7.87,4.18c3.87,1.53,7.71,3.42,10.52,6.51a70.84,70.84,0,0,0,25.73,18.31,4.68,4.68,0,0,1,.92,1.95Z"/><path class="cls-8" d="M445.72,234.79a209.42,209.42,0,0,1,18-32.3c2.67-4,6.09-7.14,11.58-5.92,1.94,1.26,1.52,3.48,2.13,5.29.1,1.45-.31,3.25.38,4.32,5.49,8.46,1.63,16.42-1.22,24.34-2.14,6-6,11.25-7.14,17.62-.17,1.26-1.51,2.9,1.05,3.29,5.18-3.83,8-9.67,12.21-14.34,3.43-3.81,6.76-7,12.4-5.53,1.75,2.15.77,4.54.59,6.86-3.88,10-10.1,18.48-16.36,27a71.94,71.94,0,0,0-11.8,23.63,50.89,50.89,0,0,1-13.3,22.65c-6.35,6.37-8,14.55-10.79,22.38-.39,1.08-.72,2.19-1.07,3.28-.67,1.57-1.82,1.94-3.19,1a3.63,3.63,0,0,1-1.37-4.45c2.33-6.21,3.7-12.78,6.86-18.68,4.08-4.59,8-9.29,11.68-14.24a29.94,29.94,0,0,0,5.7-11.52c2.49-11.7,8.35-21.66,15.55-30.95a128.65,128.65,0,0,0,12.06-19.41,24.13,24.13,0,0,0-7.43,7.24c-4.08,5.65-9.53,9.71-14.75,14.08-1.61,1.35-3.25,2.58-5.3,1s-1.19-3.43-.63-5.43c3.2-11.58,8.26-22.47,12.29-33.74.9-2.51,1.72-5,1.19-8.13-7.49,12.5-14.28,24.94-19.63,38.14a36.17,36.17,0,0,1-1.6,3.66c-.93,1.71-2.18,3.25-4.31,2.4s-2.12-2.86-1.67-4.73a46.27,46.27,0,0,1,4-10.2C457.73,231.9,464,220.54,470,209c.9-1.72,2-3.38,1.64-5.56-2.28,0-3,1.6-3.87,2.93-8,11.91-14.5,24.6-20.67,37.51-1.44,3-2.89,7.43-7.27,6-4.13-1.31-2.55-5.71-2.21-8.75A101.24,101.24,0,0,1,440.52,227a87,87,0,0,0,3.24-21.63c-5.18,14.5-9.85,28.74-15.19,42.74a36.13,36.13,0,0,1-3.75,8.13c-3,4.28-6.59,4.38-9.55.11a107.86,107.86,0,0,1-6.67-9.95,20.82,20.82,0,0,0-3.46-4.87c-.91-.91-2-2.39-3.31-1.57-1.56,1-.26,2.44.29,3.51,1.89,3.7,3.21,7.67,5.41,11.23a22.51,22.51,0,0,1,3.38,12.85c-.25,6.81.25,13.64.08,20.46a11.51,11.51,0,0,0,1.66,6.17,23.75,23.75,0,0,1,3.22,14.38c-2.4,11.48-8.42,21.43-13.43,31.8-.72,1.49-1.84,3-3.81,2.5-2.56-.66-1.76-2.74-1.53-4.5,3.35-8.62,9.13-16,12.3-24.8a16.79,16.79,0,0,0-1.08-14.91,20.66,20.66,0,0,1-2.55-10.49c-.07-8.7,1.79-17.64-1-26.07-1.91-5.76-5.23-11.08-8.14-16.48a9.13,9.13,0,0,1-1-3.2,9,9,0,0,1-.1-6c2.1-3.45,6.25-4,10.16-1.37,1.2.81,2.38,1.64,3.56,2.46,1.64.77,1.48,2.64,2.37,3.87,1.77,4.72,5,8.38,9.09,13.08,7.06-19.5,11.46-39.22,20.89-57,.89-1.66,2.35-1.67,3.92-1.36a10.72,10.72,0,0,1,3.39,4.4c.17,4,.46,7.94-.17,11.89-1.54,6.87-3.05,13.74-4.65,20.59-.17.74-.25,1.22.4,1.66.22,1.29-.46,2.33-1.13,4.19C444.4,237.09,444.5,235.58,445.72,234.79Z"/><path class="cls-9" d="M445.6,315.41c-2.2,6.09-4.55,12.13-6.53,18.29-.8,2.46-1.19,5.52,3.31,3.67-1.64,7.88-3.5,15.73-3.85,23.82-1.41,4,.63,8.27-1.17,12.21A47.9,47.9,0,0,1,415.64,360a43.05,43.05,0,0,0-18.34-12.35c-1.86-.62-3.91-1.21-3.89-3.82l3.69-5.4c1.19,1-.27,3.42,1.73,3.72,2.25.33,2.38-2,3-3.34,4.65-10,10.49-19.44,12.81-30.4,1.38-.31,2.08.76,2.93,1.48,6.56,5.56,13.72,8.42,22.39,5.41C441.74,314.66,443.78,313.78,445.6,315.41Z"/><path class="cls-6" d="M51.82,433.21a11,11,0,0,0,3,9.24c-1.89-.9-3.23-1.23-4.88,1-6.11,8.4-10.3,17.82-14.67,27.09-8.31,17.68-16.14,35.58-22.73,54A124.2,124.2,0,0,0,6,553.51a444.19,444.19,0,0,0-2.23,44.7,201,201,0,0,0,14,73.69c8.24,21.41,18.89,41.58,30.66,61.21,7.1,9.91,13.62,20.23,21.21,29.81,2.58,3.25,6.1,5.63,8.19,9.28l2.53,2.89c2.45,2.44,5.08,4.73,6.52,8,10.79,12.08,20.77,24.82,30.8,37.51,8,10.11,12,22.33,16.91,34.06,1.58,3.79,2.64,7.8,3.9,11.72.36,1.14.6,2.53-.84,3-1.59.46-1.65-1.18-2.12-2.14-1.15-2.34-.8-5.23-2.69-7.29-1.8-2.38-1.56-5.52-3-8-3.78-9.24-6.7-19-13.16-26.82-6.27-7.59-11.9-15.66-18.29-23.18-8-9.41-15.72-19-24.22-28-21.59-22.72-35.41-50.28-49.36-77.84a231.92,231.92,0,0,1-22.63-70.6c-1.16-7.67-1-15.54-1.47-23.32C-.91,576.46-.33,551,8,526.29l0,0a466.84,466.84,0,0,1,28.06-66.25c3.77-7.16,6.88-14.72,12.35-20.86C50,437.42,48.67,434.05,51.82,433.21Z"/><path class="cls-8" d="M434.35,408.28c2.52,5.72,2.42,9.5-3.23,13.69-9.45,7-13.64,17.93-21.27,26.29a57.7,57.7,0,0,1-24.23,15.9c-2.6.91-5.33,1.42-8,2.12a44.35,44.35,0,0,1-9.34,2.77c-2.55.54-4.76.05-3.9-3.5,1.78-3.15,4.85-4,8.07-4.05,8.73-.1,16.95-1.94,23.87-6.34-3.58,1.29-7,4.47-11.69,4.81-.65,0-1.3.26-2,.28-1.75,0-3.67-.12-4-2.11-.38-2.18,1.57-2.85,3.24-2.91,4.92-.17,8.88-2.68,12.89-5,5.5-3.2,10.07-7.61,14.65-11.69-4,2.4-8,5.29-12.75,6.54-2.21.58-5.22,2.71-6.42-.75-1-3,2.26-3.51,4.27-4.47,11.41-5.51,22.49-11.56,32.26-19.75,2-1.66,5.33-3.9,3.5-6.25-2.12-2.72-4.69.65-6.65,2.08-5.91,4.31-11.92,8.5-17.38,13.41a36.28,36.28,0,0,1-10.74,6.27c-1.72.7-3.89,1.35-5-.58-1.18-2.13.8-3.47,2.44-4.16,10.63-4.51,17.67-14,24.78-17.71-6.49,3.67-16.19,8.34-26.08,12.62-3.12,1.36-6.53,1.22-9.76,2a2.58,2.58,0,0,1-3.07-1.07c-.9-1.5,0-2.75,1.11-3.41,3.35-2,6.34-4.9,10.55-5.25,1.46,1.82,3.07,1,4.87.52,3.17-.79,5.5-3.08,8.42-4.28,5-1.15,8.08-5.55,12.58-7.69,4.15-2,7.84-3.39,12-.33C430.11,407.5,432.7,406.56,434.35,408.28Z"/><path class="cls-10" d="M226.76,1091.54a2.06,2.06,0,0,0-.24-.44c-1.64-1.84-3.58-4.36-2.68-6.32,1-2.13,4.16-.81,6.39-1,11.61-1.2,20.78,5.68,31,9.14,3.76,1.28,7.28,3.13,11.41,3,12.09-.5,24.21.8,36.31-.84a12.65,12.65,0,0,0,8.81-4.85c1.09-1.37,1.94-2.82,3.91-1.34.43,6.35-4.62,8.48-8.93,10.24a62.53,62.53,0,0,1-30.86,4c-4.65-.52-9.38.08-13.93-2.12-5.18-2.49-10.88-3.88-16.08-6.34a32.93,32.93,0,0,0-18.63-2.89A42.13,42.13,0,0,1,226.76,1091.54Z"/><path class="cls-11" d="M434.35,408.28c-3.05-.09-6.09.52-8.69-2.21-1.58-1.66-4-.88-6,.27-3.64,2.17-7.68,3.67-10.66,6.93a5,5,0,0,1-5.33,1.78c2.69-6.51,8-11.24,11.74-17,3.65-5.61,3.91-5.44-2.28-7.63a3.15,3.15,0,0,1-1.61-1.09l1.14-1.09a7.28,7.28,0,0,1,4.83,0c2.11,0,4.31.74,6.29-.62,4.35-1.34,8.82-.44,13.23-.73a2.77,2.77,0,0,1,1.55.3,9.74,9.74,0,0,1,1.85-.18c2.33.21,5.1-.49,6.69,1.64s-.49,4.1-1.64,5.69C442,399.15,439,404.33,434.35,408.28Z"/><path class="cls-12" d="M222.61,941.67a5.29,5.29,0,0,1,3.17-1.88c.43-.37.73-.3.87.27.08,2.3.16,4.59.25,6.89.88,2.74-.26,5.65.72,8.38.48,8.84,4.36,16.82,6.43,25.26,3.37,13.69,7.08,27.29,11.32,40.76,3.21,10.19,9.42,18.25,15.15,26.78,5.46,8.13,13.71,12.67,22.35,16.42,5.35,2.33,10.95,4.23,17.06,2.63,1.94-.51,3.69,0,3.63,2.66-6.32-1.84-12.66-.73-19-.16-16.23-2.13-25.23-13.49-32.95-26.21-11.62-19.13-18-40.2-22.2-62-2.13-11.09-5.53-21.89-7.25-33.07C221.8,946.1,221.06,943.82,222.61,941.67Z"/><path class="cls-13" d="M171.82,944l2.87-.22c3.21.49,3.32,3.43,4.11,5.57a142.05,142.05,0,0,1,8.06,39.89c1,14.84,1.6,29.87-2.5,44.51A62.9,62.9,0,0,1,172.7,1056c-1.11.92-1.94,2.4-3.76,1.85-.19-4.25,2.35-7.59,3.81-11.28a207.62,207.62,0,0,0,7.14-20.29c1.21-5.4-.46-11,.89-16.35,0-.55.07-1.1.1-1.65a97.68,97.68,0,0,0,0-19.79c0-.85,0-1.69-.08-2.54-1.22-2,.1-4.36-.91-6.38,0-.54-.07-1.08-.1-1.62-1.14-1.61.07-3.63-.92-5.27-1.75-3.64-1.55-7.69-2.28-11.52-1.06-5.62-3.33-10.79-5-16.18q-.39-.4-.18-.69C171.58,944.07,171.7,944,171.82,944Z"/><path class="cls-14" d="M226.65,940.06a4.39,4.39,0,0,1-.87-.27c0-4.88,2.69-9.2,2.91-14,.05-1.21.81-1.71,2-1.77,8.76-.48,17.45-1.62,26.31-.63a125.39,125.39,0,0,0,28.85,0,109.7,109.7,0,0,1,21.74-.47c8.72.7,16.27-2.4,23.36-7.07,4-2.67,3.42-7.06,3.53-10.8.33-12,.15-24,.17-36a.62.62,0,0,1,1,0c0,.65,0,1.3,0,2,1.33,3.59-.37,7.45,1,11,0,.65,0,1.3,0,2a40.82,40.82,0,0,1,0,14l0,6c-1.43,4.93.48,10.09-1,15l-3,4c-1.1,1.14-2.71,1.29-4,2a8,8,0,0,0-5,1,140.92,140.92,0,0,1-26,0h-12a152,152,0,0,1-27,0h-4a73.18,73.18,0,0,0-19.05,0,2,2,0,0,0-2,1.77C232.55,932.51,229.86,936.44,226.65,940.06Z"/><path class="cls-15" d="M365.61,465.24c-1.47,3.13.25,3.49,2.58,2.66,3.08-1.08,6.13-2,9.43-1.62l-1,1c-2.54.81-4.79,2.39-7.47,2.84-1.11-.28-1.73.59-2.5,1.08-1.88,1.1-4,1.34-6.06,2h0c-1.88,1.09-4,1.37-6.07,2l.06,0c-2.48,1.31-5.34,1.19-7.93,2.11-7.61,2.1-15.2,4.24-22.28,7.87a234.06,234.06,0,0,1-21.54,9.43c-2,.78-3.91,1.75-6.15,1.46-1.4-.42-2.36-1.2-2.3-2.82.94-2,2.93-2.57,4.75-3.35,13.32-5.68,26.81-10.92,40.56-15.46,7.13-2.35,13.83-5.72,20.77-8.51C362.12,465.24,363.71,463.92,365.61,465.24Z"/><path class="cls-16" d="M296.84,495.27c7.88-2.33,15.23-6,22.83-9a10.68,10.68,0,0,1,4.73-1.09l-3.74,3.16c-1.55.76-2.55,2.38-4.31,2.84l-4.68,3.18c-1.2,1-2.73,1.24-4.07,1.9l-2,1c-1.4,0-2.9-.39-4,.89C298.76,499.27,297.25,498.18,296.84,495.27Z"/><path class="cls-2" d="M335.64,869h-1a32.18,32.18,0,0,1,0-12l0,0C336.72,860.86,335.18,865,335.64,869Z"/><path class="cls-17" d="M202.73,635.34l-2.88-.84c-16.76-5.4-28.87-16-35.68-32.31-4.36-10.44-3.63-21.27-2-32.23,1.23-8.2,4.37-15.47,8.46-22.48,7.5-12.34,17.27-22.09,31.07-27.25,2.52-2.92,4.94-3,7.24.24a12.89,12.89,0,0,1-4.32,5.26c-2.73,2.15-2.43,4,.77,5.43,2.49,1.08,5.05,1.6,7.41-.55,2-1.82,4.15-2.62,6.71-.91,1.36.92,2.54.71,2.9-1.15.29-1.51-.13-2.66-1.82-2.92a16.89,16.89,0,0,0-7.32.87c-1.75.51-3.59,1.07-5-.65s-.35-3.37.7-4.88a37,37,0,0,0,2.56-6.91c.72-2.26,1.8-4.74,4.63-4.12,3,.66,2.56,3.32,2,5.65a3.11,3.11,0,0,0-.2,2,40.79,40.79,0,0,0,6.15,1.19,24.06,24.06,0,0,1,5.42.58c14.45,5,26.42,13.27,33.83,27,8,14.93,11.64,31.09,9.19,47.73A59.7,59.7,0,0,1,256.92,626c-.93,1-.3,1.26,0,1.89-5.9,5.43-13.22,8.31-20.71,10.14a56.55,56.55,0,0,1-29.1-.41A9.15,9.15,0,0,1,202.73,635.34Z"/><path class="cls-18" d="M132.85,549.35l18-.14A35.38,35.38,0,0,1,132.85,549.35Z"/><path class="cls-9" d="M124.88,250.85c9.77-1.38,17.79-6.88,26.3-11.21,1.91-1,3.7-2.18,5.54-3.27,2.39-1.47,4.08.11,5.85,1.33A117.64,117.64,0,0,0,186.5,251c10.28,4,16.84,2.27,23.27-6.8A108.75,108.75,0,0,0,220,227.08c.67-1.45,1.19-4,3.78-1.84a6,6,0,0,1,1.6,1c-2.2,6.86.36,10.17,5.24,14.37,0,1.74.06,4.29,1.1,5.78a2.52,2.52,0,0,1,1,1.65A24.61,24.61,0,0,0,237,262.54l2.73,8.87a3.11,3.11,0,0,1,.23,2.85c-1.52,4.94-.09,9,3.4,12.62a3.94,3.94,0,0,1,1.33,2.57l2.1,10.86c-8.18,6.23-9.73,13.84-4.77,22.82.05.08-.12.29-.19.44a17.35,17.35,0,0,1-5.11,6.81,1.27,1.27,0,0,1-1.34-.27c-6.44-5.78-10.64-5.71-16.78.3-.92.91-1.65,2.07-3.12,2.18-1.39-.15-2.88.09-4-1-.48-1.45.47-2.52,1-3.71,3.18-7.12,0-16.42-6.83-20.06-5.42-2.87-12,.92-13.38,7.61-.4,2,.42,4.42-1.67,6-4.6-3.1-7.68-7.43-11-11.83-10.92-14.33-18.19-31.18-31.53-43.86C141.1,259.17,133.81,253.89,124.88,250.85Z"/><path class="cls-19" d="M296.84,495.27c1.36,1.33,2.65,2.78,4.76,2.89a2.68,2.68,0,0,1,.08,3.08l-.61.56c-4.41,1.18-7.06-1.81-9.13-4.63-9.4-12.81-17.08-26.33-14.38-43.19.55-3.46-.87-4.06-3.85-3.47-14,2.77-28.31,3.76-42.16,7.42-4.5,1.19-9.33.31-13.71,2.26-6.51,1-12.67,3.33-19.07,4.77-1.71.39-3.41,1.36-5.21.29-15.87,2.71-30.67,8-43.61,17.87a28.16,28.16,0,0,0-6.1,6.47c-.88,1.27-2.23,2.32-3.8,1.11s-.23-2.42.41-3.47c1.73-2.86,3.62-6.06,6.58-7.33,8.76-3.75,7.5-11.11,6.38-17.76-1.92-11.44-4-22.79-3.68-34.47.13-4.15-1.2-8.07-2.63-12A236.69,236.69,0,0,0,114.3,355c-1.44-2-4.54-5-2.19-6.76s4.28,2.13,5.86,3.88c11.41,12.63,19.86,27.28,28.63,43.56.21-6,.59-10.59-.23-15.19-2.48-14-8.35-26.82-13.47-39.92a9.37,9.37,0,0,1-1.08-4.29,3.62,3.62,0,0,1,2.45-3.45c2.12-.6,2.23,1.34,2.73,2.71,3.85,10.53,8.51,20.78,11.4,31.82.79-3.41,1.68-6.81,2.34-10.24.32-1.69.31-3.71,2.57-3.49s1.45,2.29,1.45,3.65c0,7.79-.32,15.56-.8,23.36-.66,10.44-.17,21-.16,31.45,0,5,3.28,9.36,8.2,9,13.46-.92,27.16-.78,39.8-6.8,3.37-1.61,5.78-4.42,8.8-6.46,1.42-.95,2.76-2.42,4.27-.66,1.69,2-.53,3-1.58,4-5.21,5-11.07,9-18.31,10.49-9.08,1.82-18.14,3.78-27.49,3.61-4.47-.08-9.06.63-13.13-3.21-2.14,17.36,3.34,33.07,4.87,49.54,6.8-1.88,12.69-6,19.66-7.66,14.66-3.45,29-8.55,43.76-11.15,9.86-1.73,19.71-4,29.83-4.82,8.14-.66,16.11-3.6,24.43-3.69,3.37,0,6.67.49,8.74,3.71a32.91,32.91,0,0,1-1.28,3.29c-2.92,10.72-.94,20.66,4.65,30.06,2.26,3.8,5.32,7.21,5.88,11.86A3.1,3.1,0,0,0,296.84,495.27Z"/><path class="cls-20" d="M193.56,465.25c8-2.06,15.66-5.45,24.06-5.84,1.86.83,2.52,2.57,3.14,4.27,4.46,12.39,7.38,25.07,7.42,38.34a38.92,38.92,0,0,1-4.32,18.17,14.68,14.68,0,0,0-1.94-.36c-4.16-.25-6.91-1.37-4.44-6.33a2,2,0,0,0-1.31-2.82,2.32,2.32,0,0,0-2.74,1.65,26.17,26.17,0,0,0-1.6,5.69c-.31,1.9-1,3.11-3.08,3.22-1.93-3.18-4.49-2-7-1,5.25-17.38,2.45-33.77-6.1-49.46C194.67,469,193.43,467.39,193.56,465.25Z"/><path class="cls-21" d="M215.47,332.59c2-3.36,4.56-6.06,8.46-7.34,5.74-1.88,9.78-.33,12.78,5.13,1.1,3.6,3.19,6.93,2.88,10.91-.62,7.8-7.8,14-14.8,12.85-7.34-1.25-12.55-9.27-10.86-16.84C214.29,335.7,215,334.16,215.47,332.59Z"/><path class="cls-21" d="M190.55,321.4c.22-3.44-.08-6.93,1.78-10.15,4.11-7.09,12-7.95,17.28-1.8,7.24,8.4,7.74,14.38,1.83,22.14C201.57,336.25,194.48,332.79,190.55,321.4Z"/><path class="cls-21" d="M241.82,323.57c-7-9.41-5.11-18.4,5-23.26,5.88.14,9.35,3.81,11.58,8.61,1.7,3.65-1.13,12.24-4.62,14.89C249.82,326.77,245.75,326,241.82,323.57Z"/><path class="cls-21" d="M244.68,289.45c-6.92-5.23-8.09-9.48-5-18,6.18-5.38,8.81-5.59,13.67-1.06S258.74,281,255,286C252.3,289.68,248.6,289.77,244.68,289.45Z"/><path class="cls-22" d="M237,262.54c-6.34-3.88-5.94-10-5.24-16.12,3.49-4.13,9.27-5.54,13-3.19,5.36,3.35,7.52,8.93,5.39,13.92S243.43,264.11,237,262.54Z"/><path class="cls-23" d="M227.44,239.64c-4.6-3.34-6.09-7.92-3.91-12.26a3.43,3.43,0,0,1,2.79-1.86c2.36-.16,4.71-.24,7,.9,4.4,2.22,5.88,6.35,4.22,12.05a5.44,5.44,0,0,1-3.21,2.39A7.88,7.88,0,0,1,227.44,239.64Z"/><path class="cls-13" d="M283.46,450.26a2.38,2.38,0,0,1,2.2-2.22c6,.31,12,.82,18-.64,2.34-.58,4.75,1.87,7.05-.17,2.69.41,5.11.31,5.75-3.1,7.76-2.69,15.65-4.94,23.52-7.28,1.19.94,3.46.17,3.85,2.41-.92,2.07-3,2.56-4.74,3.41a106.2,106.2,0,0,1-38.87,10c-3,.21-5.9,1.05-8.91,1S285.29,453.22,283.46,450.26Z"/><path class="cls-9" d="M129.93,128.32a176.34,176.34,0,0,1,1.14-48.68c2-12.85,7.82-24.28,18-33.08,6.74-5.82,14.64-7,22.92-5.78,5.88.85,8.25,5.82,9.66,11,1.28,4.63,1.81,9.48,3.19,14.08,3.24,10.81,14.75,16.28,25,11.43,9.66-4.59,18.17-3.5,25.71,3.68a30.36,30.36,0,0,1,9.29,19.37c1.21,8.24.14,16.52.48,24.78.1,2.46-.43,5,.7,7.37a2.39,2.39,0,0,1-.28,2.8,2.08,2.08,0,0,1-2.76-.06c-2.72-2.08-6.15-2.42-9.12-3.83-1.66-2.4,0-4,1.37-5.67s3.36-2.73,4-5c-1.46-.93-2.53.2-3.67.61s-2.57,1.33-3.8,1c-7.78-2-25.5-.71-24.25,6.06-.39,2.58-1.36,5.05-1.39,7.69-1.54,4,1,6.47,4,9.06-.06.56-1.34,1.51-1.86,1.73a4,4,0,0,1-3.37-.25c-5.59-3.33-11.48-1.89-16.78,0-8,2.77-16.11,3-24.31,3.46-.52-.16-3.68-1-4-1.42,0-2.31,4.6-2.25,6.25-2.86,4-.45,2.75-2.83,1.88-5.09-.45-2.31-.51-4.67-.93-7-1.56-3.46-1.37-3.55-7.38-6-2.79-1.14-2.46-3.64-5-4.14A23.06,23.06,0,0,0,144,125.37c-3.1,1.44-6.38,1.42-10.19-.09,1.33,6.3,7.15,9.12,8.33,14.55.47,2.31-.7,3.42-2.82,3.64-3.13.32-6.21.23-8.67-2.2C129.85,137,131.09,132.59,129.93,128.32Z"/><path class="cls-9" d="M164.66,222.54c-14.35-5.52-26.12-14.55-35.9-26.31-.32-.4-.67-.92-.5-1.35,2.14-5.39.66-10.34-1.8-15.18a5,5,0,0,1,.51-1.44c1.16-2.93-.51-6.44,1.9-9.11,2.87-.92,5.23.67,7.56,1.76,12.78,5.91,26.16,7.19,40,5.53,2.15-.26,4.32-.61,6.22.85.4,3.45-2.81,4-4.64,5.53-6.25,5.16-6.13,6.25-12.95,2.1-1.09-.66-2.4-2.15-3.35-1.17-1.18,1.24.15,2,.74,2.94a23,23,0,0,0,5.73,5.39c3.8,4,8.28,7.16,12.6,10.47,7.09,5.42,13,4.59,19.45-1.64,2.79-2.69,4.15-6.42,7.1-8.92,3.39-1.67,5.43-4.77,7.87-7.43.68-.74,1.56-1.51.42-2.46s-1.62-.52-2.69.51c-4,4.61-5.14,4.26-9.78.38-3.11-2.6-7.71-2.29-10.25-5.75.17-4.65,3.8-3.7,6.49-3.76,13.65-.32,27.09-1.81,39.9-6.87a47.81,47.81,0,0,0,15.24-10.23c3.72,1,3.06,4.3,3.72,6.91-.06,1.26-.93,2-1.73,2.86-6.22,6.56-6.89,11.11-2.79,19,.52,1,1.4,1.89.79,3.16-4,3.31-5.49,8.45-8.73,12.4a48.51,48.51,0,0,1-23,15.81c-3,4.66-7.91,5.73-12.75,6.9-13,3.15-26.17,4.9-39.51,1.66C168.35,224.55,166.21,224.28,164.66,222.54Z"/><path class="cls-24" d="M254.74,156.45c-.27,2.65-2.36,3.76-4.2,5.18-10.31,8-22.4,10.63-35,11.89-6,.6-11.81,3-18,1.2-.78-.22-4.35-.67-3.73,2.73a12.86,12.86,0,0,1-11,1c-1.87-1.67-4.08-1-6.13-.72-13.49,1.9-26.56.74-39.12-4.85-2.84-1.27-5.81-2.26-8.72-3.38-2.73-2-2.14-4.88-1.93-7.69.52-6.93,3.89-13.29,4-20.29,2.57,0,4.95,1.08,7.58,1.11,2.84,0,2.76-1.27,2.36-3.21,1.65-.43,3.36,1.45,5-.13,2.85.81,3.2,5.09,6.79,4.89,2.3,2.39,6.59.84,8.4,4.22a2.15,2.15,0,0,1-1.12.67,2.55,2.55,0,0,1,2.75.39c10.94-.6,21.61-2.82,32.21-5.46,3.44-.86,6.79-1,9.82,1.42a5.32,5.32,0,0,0,4.22,1c1.78-1.77,4.61-.63,6.42-2.33a27,27,0,0,1,5.83-2.14c2.16.05,3-1.63,3.94-3.09a33.77,33.77,0,0,0,5.38-9.35c1.33-.77,2.25,0,3.18.81,3.7,1.89,8.86.07,11.17,5.55-.62-12.43.12-23.91-.08-35.37,1.59,3.89,1.39,8,1.23,12-.35,9.07-.76,18.12,1.77,27,2.16,4.37,3.4,9.17,6.25,13.23A3.66,3.66,0,0,1,254.74,156.45Z"/><path class="cls-25" d="M164.66,222.54c16.43,4.31,32.69,3,48.88-1.46,3.39-1,6.21-2.89,9.19-4.59-2.35,3.25.45,5.87,1.08,8.75-1-.08-1.68-.32-2.23,1.09-2.77,7.15-7.12,13.4-11.52,19.64-5.73,8.13-13.68,10.39-23,6.66a111.13,111.13,0,0,1-26.66-15.07,6.2,6.2,0,0,0-3.69-1.19C161,232.7,165.66,229.24,164.66,222.54Z"/><path class="cls-22" d="M254.48,188.29c-7.1-9.53-6-18.06,3.17-24.8a4,4,0,0,1,2.36-1.77c2.53-.77,4.92.06,7.33.69a4.82,4.82,0,0,1,2.32,1.76c8.28,5.8,10.8,13.33,7,21C272.05,194.45,263.37,195.69,254.48,188.29Z"/><path class="cls-22" d="M127.05,179.45c4.38,5.2,4.47,10.85,1.71,16.78-1.8,1.54-2.71,4.21-5.59,4.37-2.86.87-5.72,1.84-8.56,0-7-3.51-9.17-11.89-4.68-18.85,1.32-2,3.25-3.68,4.91-5.51a3.35,3.35,0,0,1,1.7-1.53C121.15,173.81,124.83,175,127.05,179.45Z"/><path class="cls-8" d="M115.88,175.56l-1,.64c-5.59-8.4-8.5-17.83-9.91-27.68-.7-4.86,4.93-9.67,10.78-10a19.81,19.81,0,0,1,10.86,2.91c2.27,1.25,3.32.8,3.26-1.95-.09-3.64,0-7.28,0-10.92,2,4.19.36,8.67,1,13,2.61,1.71,1.47,3.86.8,6-2.17,7.15-5,14.22-2.9,21.93-.49,3.27,1.14,6.74-1,9.85-4.41-1.32-4.31-5.88-4.16-9.45.3-7.07-3.2-11.55-8.84-14.93a19,19,0,0,1-2.09-1.34c-1.14-.88-1.92-2-1.33-3.42.7-1.71,2.3-1.81,3.81-1.45,3,.71,5.29,2.66,7.61,4.55a2.86,2.86,0,0,0,2,1c.38-2.78,3.36-5.48,0-8.37-2.82-2.42-10-3-12.78-1-3.43,2.45-3.48,5.8-2.06,9.34,2.22,5.52,4.09,11.21,7.78,16C120.84,174.34,120.74,174.41,115.88,175.56Z"/><path class="cls-26" d="M269.66,164.17l-2-.78c-2.9-.62-2.39-2.28-1-3.91,2.41-2.94,3.32-6.45,4.28-10,1.14-4.2-.13-8-2-11.5-1.65-3.06-4.72-3.58-7.83-2.44-6,2.21-7.81,8.63-4,13.63a12.45,12.45,0,0,1,5.61-10.46,2.66,2.66,0,0,1,3.65.08c1,.92,1.32,2.3.46,3.15-4.53,4.52-4.49,10.38-5.2,16.09a7.75,7.75,0,0,1-1.85,4.57l-2.1.89c-1.72-2-.89-5.13-2.91-7-3.09-5.33-6.9-10.35-7-16.91,1.11,1.25,2.17,2.15,3.09-.2a16,16,0,0,1,4.06-5.57c7.25-7,16.92-4.47,19.71,5.15C277.3,148.21,275,156.48,269.66,164.17Z"/><path class="cls-27" d="M123.49,203.3c3.78,2.31,6.13,4.76,6.2,9.08,0,3.3-.85,6.18-4.53,7.22-3.13,1.1-5.78-.07-8.4-1.41a8.19,8.19,0,0,1-2.29-1.76,16.52,16.52,0,0,1-1.33-1.71c-4-6,1.74-13.91,8.66-12.12A6.15,6.15,0,0,1,123.49,203.3Z"/><path class="cls-27" d="M274.47,203.67c.13,5.43-4,10-9.05,9.93-4.82,0-8.24-3.73-8.51-9.23a8.71,8.71,0,0,1,8.11-9C269.82,195.11,274.37,199.13,274.47,203.67Z"/><path class="cls-28" d="M125.07,227.78c0,3.52-2.85,6.66-6.12,6.38-3.67-.31-5.74-2.58-5.71-6.21s1.84-6,5.76-6A5.77,5.77,0,0,1,125.07,227.78Z"/><path class="cls-29" d="M271.77,221.41c-.2,3.5-1.76,5.76-5.07,6-3.13.21-5-1.64-5.16-4.8-.14-3.5,1.6-5.89,5.19-6C269.88,216.49,271.41,218.63,271.77,221.41Z"/><path class="cls-30" d="M148.32,144.09a2.55,2.55,0,0,0,1.24.89c7.5,2.92,14.16,5.26,20.3,1Z"/><path class="cls-31" d="M411.55,389.31a8.35,8.35,0,0,1,1,0c9.61,1.7,9.64,1.85,4.1,9-4.33,5.57-7.87,11.76-12.95,16.75-2.64,3.5-7,4-10.56,5.86-2.49,1.32-2.57-.8-2.42-2.59a19,19,0,0,1,4.14-7.39,17.68,17.68,0,0,1,3.73-3.6c5.34-3.22,6.57-9.25,9.57-14.07C409.09,391.78,409.35,389.71,411.55,389.31Z"/><path class="cls-32" d="M398.59,407.33c-.79,1.45-1.23,3.14-2.83,4s-3.29,2.06-5.41,2.26c-16,1.51-28.28,10.24-40,20.23-2,1.74-3.3,4.72-6.68,4.47-1-.4-2.8,1.63-3-1-.2-2.3,1.52-2.6,3.13-3,1.91-.88,3.76-1.83,4.6-3.95,11.88-11.37,25.32-19.64,42.15-21.17.44,0,.84-.46,1.26-.71.83-1,1.79-.64,2.76-.28Z"/><path class="cls-30" d="M166.59,146.55l2.37-5C171.32,145.86,171.14,146.22,166.59,146.55Z"/><path class="cls-9" d="M172.7,1056c.83-2,1.36-4.16,2.54-5.9,8.82-13.06,10.48-27.72,10.65-43a178.6,178.6,0,0,0-8-56.09,68.9,68.9,0,0,0-3.17-7.17c4.89-1.48,10-1.48,15-1.7,11-.48,21.93-2.28,32.91-.4.95,10.23,4.16,20,6,30,3.56,19.23,8.47,38.07,16.07,56.07a113.33,113.33,0,0,0,20.3,31.54c4.57,5.08,11.61,6.84,17.87,9.45a18.33,18.33,0,0,1,1.69.91c-12-.58-24.05-.45-36-1.82a8.28,8.28,0,0,1-5.42-3.18c-3.29-3.81-7.58-6.36-11.61-9.22-2.24-1.59-4.75-3.14-7.76-1.59-3-7-2.75-14.63-4.39-21.89-6.42-28.39-9.43-57.4-15.82-85.84a9,9,0,0,0,.09,5.05c5.37,23.2,7.93,46.86,11.44,70.36,1.43,9.6,5.43,18.51,6.49,28.15.35,3.2.56,6.28-.65,9.31-3.08,10.69-6.46,21.19-14.95,29.15a26.54,26.54,0,0,1-8.37,5.22c-5.15,2.1-10.58.71-13.17-3.68C178.27,1079.27,173.23,1068.37,172.7,1056Z"/><path class="cls-33" d="M220.91,1059a90.11,90.11,0,0,0-4.67-24.72c-3-8.57-2.62-17.93-4.52-26.8-4-18.56-4.27-37.74-9.58-56.07a25.76,25.76,0,0,1-.44-4.93c-.13-1.49-1.75-3.59.81-4.12,2.08-.43,2.65,1.89,3,3.38,1.55,7.76,2.89,15.57,4.3,23.36,3.17,17.52,4.92,35.27,9.2,52.64a169.67,169.67,0,0,1,4.79,32.12C222.67,1055.51,222.93,1057.9,220.91,1059Z"/><path class="cls-2" d="M202.73,635.34c8.45,1.7,16.83,3.16,25.6,2.54C239,637.12,247.86,632,257,627.32c1.68-3,5-3.81,7.67-5.23,16.63-8.76,22.43-23.86,23.65-41.17,1.42-20.11-7.48-36.31-21.1-50.29-2.64-2.71-6.47-3.25-9.81-4.67-1.91-.81-4.34-1-4.93-3.6.6-1.76,2.15-2.5,3.64-3.19,11.78-5.44,23.5-11,35.44-16.09,3.32-1.42,7,0,10.15-1.83h0c2.29.81,4,1.82,4.16,4.8.77,12.91,2.65,25.8,1.75,38.75-.53,7.46-1.27,14.92-.73,22.36,1.05,14.35,2.51,28.68,3.68,43,.36,4.45.63,8.92,1,13.37.78,9.75,1,19.56,1.11,29.35.24,17.1,2.83,34.09,2.09,51.23-.27,6.3-1.4,12.53-1,18.88,1,14.93.77,29.89,1.1,44.84.35,16.08.86,32.18,2,48.23.61,8.52,2.64,16.95,4.23,25.38.32,1.65.38,3.28.6,4.91.38,2.9-.84,3.94-3.65,3.63-20.54-2.26-40.55.87-60.49,5.51-9.95,2.31-20.44,2.07-30.08,6-2,.82-2.66-.06-2.81-2-.6-7.93-1.31-15.84-1.93-23.76-1.74-22.44-2.82-44.92-5.83-67.27-2.4-17.87-4.14-35.82-5.33-53.83-1.32-20-3.76-39.83-6.54-59.66C204.13,648.52,203.35,641.92,202.73,635.34Z"/><path class="cls-2" d="M210.43,938c-15.87.7-31.67,2.43-47.49,3.48-13.78.92-27.05,4.56-40.74,5.42-5.58.36-10.69-1.83-15.81-3.72-2.41-.89-3.6-2.88-4.5-5.06-3.55-8.64-5.18-17.72-6-27a84,84,0,0,1,.66-21.65c.59-3.62,2.41-4.52,5.2-5.46,10.87-3.64,22.15-5.26,33.4-7.09,6.68-1.09,13.24-2.73,20-3.51,3.45-.41,6.54.46,9.81.46,15.92,0,31.86.78,47.69-1.84a22.12,22.12,0,0,1,6,.07c1.71.2,3,.93,3.18,3.12.92,10.86,1.69,21.74,3.1,32.54a77.74,77.74,0,0,1-.69,24.64c-.84,4.52-2.75,6.29-7.28,5.62A43.61,43.61,0,0,0,210.43,938Z"/><path class="cls-2" d="M330.67,877.09c.58,8.32-.19,16.25.82,24.24,1.19,9.37-5,16.06-14.35,17.69-4.65.81-9.15.5-13.76.11-8.49-.73-16.81,1.34-25.23,1.84-10.15.59-20.21-1.05-30.34-1.11a150.7,150.7,0,0,0-16.34,1.23c-2.33.23-2.73-.45-2.78-2.58-.35-14.23-2.54-28.29-4-42.42-.25-2.36,1.74-5-1.59-7.26-1.46-1,1.18-3.11,3.16-3.89A65,65,0,0,1,246,860.2c10.49-.65,20.42-4,30.69-5.6,16.23-2.6,32.46-1.47,48.69-1.5,3.36,0,5.38,2.24,5.35,5.91C330.64,865.17,330.67,871.32,330.67,877.09Z"/><path class="cls-14" d="M334.65,857l0,12c-1.93-3.92-.68-8-.8-12.09Z"/><path class="cls-34" d="M445.6,315.41c-2.24.46-4.53.73-6.7,1.4-10.18,3.13-17.7-1.21-24.24-8.43A20.69,20.69,0,0,0,411,294.24,8.39,8.39,0,0,1,409.6,289c.08-3.3-.31-6.65.11-9.91,1.58-12.28-1.9-23.25-8.09-33.63-.68-1.14-1.19-2.38-1.78-3.57-.72-1.43-1.1-2.95.36-4s2.56.09,3.65.73a11.9,11.9,0,0,1,4.06,4.3c2.82,4.49,5.75,8.92,8.68,13.34,2,3.07,4.4,3.18,6.64.19,4-5.32,4.81-12,7.42-17.87,5-11.38,7.48-23.72,12.75-35,.25-.54.14-1.39,1.65-1.29-.08,7.14-.35,14.2-2.26,21.23s-3.83,14.06-4.22,21.38c-.08,1.53-.77,3.61,1.3,4.39,2.23.83,3.28-.86,4.16-2.57,3.42-6.61,7.36-13,10.13-19.87,3.33-8.28,9.75-14.57,13.42-22.57.83-1.83,3.23-4.19,5.06-3.07,2.3,1.41.66,4.41-.31,6.29q-9.18,17.88-18.78,35.53a79.42,79.42,0,0,0-4.77,11.46c-.46,1.29-.43,2.89,1.22,3.31,1.21.31,2.13-.59,2.56-1.86,3-8.82,7.37-17,11.77-25.17,3.59-6.66,7.2-13.3,11.2-20.67a14.8,14.8,0,0,1,.09,11.18q-6.71,18.17-13.53,36.29c-.45,1.2-.58,2.29.47,3.17,1.26,1.06,2.31.54,3.52-.4,8-6.24,14.75-13.7,21-21.65,1-1.21,2.08-3.56,3.72-2.55s.83,3.39-.11,4.94c-2.85,4.66-5.57,9.45-8.87,13.8-8.58,11.29-15.75,23-19.36,37.12C460,301.51,452.78,308.69,445.6,315.41Z"/><path class="cls-9" d="M343.69,438.32a115.39,115.39,0,0,1,23.46-18.25c7.54-4.35,15.44-7.46,24.26-7.8a26.73,26.73,0,0,0,4.35-.91c-2.07,2-2.49,5.27-5,7-3.2,1.75-6.43,3.44-9.58,5.28-.92.53-2.37,1.2-1.72,2.61s1.89.38,3,.22c14.6-2.17,26.59-10.29,39.17-17.06a7.93,7.93,0,0,1,1.34-.66,2.48,2.48,0,0,1,1,.13c-.11,1.5-1.35,2.29-2.32,2.94-9.36,6.23-16.85,15-27.32,19.75-1.31.59-4,1-2.93,3.11.89,1.68,3,.19,4.48-.44,10-4.24,16.84-12.8,25.82-18.43a49.37,49.37,0,0,0,4.35-3.31c1.9-1.52,4.28-2,5.93-.46s.61,3.67-.72,5.34c-4.63,5.84-10.84,9.62-17.18,13.23-6.9,3.93-13.31,8.78-21.05,11.14-1,.31-2.53.84-2,2.35.66,2,2.09.76,3.3.5,6.6-1.43,11.8-5.78,17.93-8.4a54.86,54.86,0,0,1-17.3,15.47c-4.12,2.37-8.13,5.31-13.37,4.71-1-.11-2.19.33-2.07,1.56s1.33,1.22,2.34,1.38c4.26.65,7.77-1.29,11.3-3.18a40.55,40.55,0,0,1,6.78-3.12,26.3,26.3,0,0,1-12.6,7c-5,1.18-9.71,4.14-15.39,2.6-1.81-.49-4.52.78-6.21,2.61-12.24,5.1-24.35,10.54-37,14.53-11.57,3.65-22.53,8.81-33.69,13.48-7-10.46-14-20.91-13.24-34.4a24.6,24.6,0,0,1,1.8-8.58c5.9,3.94,12.19,1.3,18.27.9,14-.91,27.12-5.12,39.79-10.93A4.13,4.13,0,0,0,343.69,438.32Z"/><path class="cls-5" d="M301.67,501.25c-5.73,2.86-12.06,4-17.95,6.64-10.47,4.67-20.75,9.73-31.18,14.48-6,1.35-11.65-1.18-17.52-1.27a28.9,28.9,0,0,1-5.33-.92h-5.83c-.23-.6-.84-1.37-.65-1.78,7.18-15.81,2.57-31.33-1.25-46.81-1-4.16-2.87-8.13-4.34-12.19,1-1.36,2.59-1.61,4-1.84,18.32-3.09,36.66-6.06,55-9.08,2.54-.42,3.39.64,2.89,3.05-2.87,14,.66,26.5,8.95,37.87,2.49,3.43,3.86,7.62,7.8,10.08C298,500.62,299.61,501.41,301.67,501.25Z"/><path class="cls-35" d="M229.69,520.18c6.62-1.15,13,.24,19.48,1.48,1.13.21,2.24.47,3.37.71a11.23,11.23,0,0,0,2.12,1.21c21.36,6.6,29.25,24,34,43.38,2.7,11,1,22-2.88,32.71-5,14.12-15.62,22.18-28.82,27.65-1.64-.25-2-.82-.74-2.16,6.39-6.83,9.56-15.47,13.31-23.78,3.23-7.14,2.43-14.72,2.07-22.12a73.45,73.45,0,0,0-11.62-36c-6.29-9.93-15.56-16.6-26.47-20.92C232.12,521.78,230.62,521.5,229.69,520.18Z"/><path class="cls-20" d="M208.87,520.88c-1.07,4.33-.24,6.31,4.27,4.39a14.9,14.9,0,0,1,6.29-1.06c4.59.12,6.11,2.33,4.14,6.54-1.16,2.47-3.11,1.7-4.37.29-2.11-2.37-3.69-1.17-5.44.26-3,2.44-8.39,2.72-10.94.16-1.92-1.92-3.57-4.45.25-6.32A26.21,26.21,0,0,0,208.87,520.88Z"/><path class="cls-21" d="M196.05,286.5c0,7.35-3.76,11.49-10.14,12-6.71.51-13.37-4.76-14.14-11.3a20.58,20.58,0,0,1,0-5c.76-5.85,4.91-11,9.6-12.19,6.25-1.61,8.92,2.7,11.74,6.92A16.71,16.71,0,0,1,196.05,286.5Z"/><path class="cls-21" d="M145.64,252.76c0-6.79,3.89-11.45,9.72-11.49,6.57,0,12.46,6.38,12.44,13.56,0,6.52-3.9,11.18-9.46,11.36C151.9,266.4,145.69,259.83,145.64,252.76Z"/><path class="cls-4" d="M147,140.57c-.43,1.18,1,1.6.65,2-1.54,1.55-5.52-3.24-6.63-3.06-2.36-3.14-4.67-6.32-7.09-9.41-1.22-1.55-1.94-3.22-.88-5,1.24-2,2.54.08,3.76.33a10.27,10.27,0,0,0,7.18-1c3.51-2,7.17-2.16,11-1.82,7,.43,11.26,4.22,13,11,1.63,2.5,1,5.33,1.17,8a4.54,4.54,0,0,1-.72,2.71,10.15,10.15,0,0,1-3.43,3.37c-.3.18-.63.38-1.08.62-.81.4-1.61.13-3.14,0-2.9-.56-6.58-.66-8.95-3.4-5.56-2.7-3.55-7.69-3.23-12.32C143.16,134,148.56,138.47,147,140.57Z"/><path class="cls-4" d="M233.65,130.34l-2.9-.42c-1.39.29-3.64-.77-2.94,2.45.58,2.74-1.52,4.85-2.69,7.14-1.08,1.12-2.14.66-3.39,2.82-2,.66-3.92,1.73-5.91,2.38a4.66,4.66,0,0,1-2.92.78c-6,0-6-5.41-8.14-8.94-.22-2.91-.16-6.09,1.15-8.63,1.1-1.35,1.11-2.54,2.91-4.06a20.94,20.94,0,0,1,7.13-3.45c2.46-1.2,5-1.82,7.59-.51a13.58,13.58,0,0,0,13.7-.46c1.25-.72,2.95-1.81,4-.34,1.38,1.86-.79,2.84-1.77,4C237.54,125.51,234.62,127.12,233.65,130.34Z"/><path class="cls-36" d="M229.13,84a.15.15,0,0,1,.1.26c-2.24,2,4.84,1.75,7.4,4.87,1.67,2,.41,2.5-1.5,2.55-3.3.08-6.6.36-9.88.6-7.11.51-12.54,3.61-17.4,8.5-1.23,1.24-2.45,4-5,2.26-2.77-1.89-2.33-4.42-.88-7,3.92-7,10.74-9.52,17.91-11.36C221.76,84.19,226.3,84.28,229.13,84Z"/><path class="cls-37" d="M206.15,123.86a20.23,20.23,0,0,1-1.32,3.69.87.87,0,0,1-1.46,0c-1.65-2.58-1-5.2,1-7.38s4.49-3.89,7.84-3.45a.87.87,0,0,1,.43,1.56C210.2,120,206.21,119.79,206.15,123.86Z"/><path class="cls-38" d="M204.76,136.55c2.58.78,2.36,3.66,3.92,5.26,1.2,1.23,1.93,2.95,4,2.79-.79,2.55-2.58,1.22-4.07,1.05C202.67,144.62,203.9,140.5,204.76,136.55Z"/><path class="cls-39" d="M182.77,178.45c3.58-1.25,7.31-.9,11-1,4.2,1.84,8.77,2.75,12.21,6.39,1.89,2,5.36,2.19,5.06-1.91.13-1.44.78-2.28,2.08-2.26a5.86,5.86,0,0,1,4.67,2.51c1,1.41-.15,2.54-1.19,2.77-4.13.9-4.25,6.94-8.81,7.56-8,.31-15.82,5.53-24.13,1.09-1.85-1-3.86,0-5.81.49-3.56.94-7.2,1.76-10.15-1.56-3.26-.37-4-3.49-5.84-5.63-.59-.68-1.91-.89-2.68-1.36-1.07-.66.31-2.44,1.42-3.19,1.8-1.2,4.28-1.85,5.44.15.31.53-1.07,2-.87,2.14,4.64,2.76,5.91,2.43,10.69-1.6C178,181.27,179.92,179.15,182.77,178.45Z"/><path class="cls-40" d="M115.88,175.56c3.28-1,2.76-2.51.9-4.61-4.6-5.21-6.51-11.88-8.72-18.19-2-5.84,2-10.21,8.39-10.25,11.12-.07,13.44,3.7,8.61,14.5-2.85-2.59-5.57-5.27-9-6.86-1.34-.61-3.05-1.41-3.84.48s1.19,2.11,2.26,2.68c6.81,3.57,11.23,8.43,10.48,16.84a12.26,12.26,0,0,0,2.93,9.2c-.26,0-.53.08-.79.1C123.66,177.19,120.53,174.19,115.88,175.56Z"/><path class="cls-41" d="M167.7,192.53c3.84,1.26,7.6,1.82,11.34-.5a5.44,5.44,0,0,1,6.1.53c3.55,2.66,7.37,2.1,10.73.74,3.73-3.27,7.89-1.39,11.92-.79-2.3,3-3.83,6.51-6.67,9.23-7.21,6.92-13,7.82-21,1.76C175.75,200.18,170.7,197.46,167.7,192.53Z"/><path class="cls-42" d="M193.74,161.46l7.31,3.64c1.37-2.19.22-3.52-1-4.85-.58-.63-1.11-1.35-.16-2.1.79-.62,1.48-.27,2.22.25,3.24,2.27,3.54,7.44.54,9.81-9,7.1-18.53,7.82-28.12,2-2.44-1.47-2.93-3.94-2.67-6.53.18-1.75.39-4.29,2.77-3.8s.36,2.42.3,3.73c-.08,1.61-.7,3.48,1.85,3.83,1.58.41,2.65,2,4.78,2-.81-1.8-2.92-1.64-3.77-2.95a13.76,13.76,0,0,1,11-5A3.46,3.46,0,0,1,193.74,161.46Z"/><path class="cls-43" d="M193.74,161.46h-5l-.21-.45c-1.31-2.81-2-5.6.71-8a2.22,2.22,0,0,1,3.44,0C195.5,155.55,195.22,158.41,193.74,161.46Z"/><path class="cls-30" d="M145.91,139.92c-3.45-6.89-2.73-8.47,4.57-9.32-1.22,4.92-2.85,9.88,1.15,14.24C147.46,145.83,147.49,141.94,145.91,139.92Z"/><path class="cls-38" d="M224.82,139.51c1.44-4.17,3-8.33.7-12.89,2.42.15,1.89,2.48,6.29,3.43a16.55,16.55,0,0,1,1.88.28c.62,4.41-5.9,6.2-8,9.21C225.41,139.94,225.11,140,224.82,139.51Z"/><path class="cls-44" d="M177.77,166.5c2.58-.14,4.93.17,5.81,3.13.2.68-.17,1.58-.77,1.53-1.17-.08-2-1-3-1.27-1.63-.51-2.8-.61-3.09-2.41Z"/><path class="cls-40" d="M259.75,162.6c1.87-6.84-.85-15,5.8-20.49.8-.66,1.3-1.6.44-2.6-1.06-1.22-2-.58-3,.23-4,3.32-5.3,7.84-5.5,14.28a15.66,15.66,0,0,0-3.18-5.59c-.07-.09-.22-.24-.31-.37-2-2.73-1.23-5.31.38-7.87,2.27-3.64,4.88-7.09,9.72-6.5,2.83.35,5.4,1.23,6.74,4.84,3.09,8.33,1.79,15.56-3.86,22.13-1.34,1.56.23,1.89.69,2.73C265,163.27,262.48,162,259.75,162.6Z"/><path class="cls-45" d="M374.85,455.23a14.48,14.48,0,0,1-1.66,0c-.85-.06-1.79-.38-1.84-1.29-.06-1.24,1-1.54,2-1.58,2.12-.1,4.24,0,6.29-.85.83-.33,2.12-.52,2.42.8s-.86,1.58-1.69,2.09C378.93,455.28,377.31,455.37,374.85,455.23Z"/><path class="cls-17" d="M206,528.78c2.39,0,2.14,2,3,2.87C207.15,531.62,206.44,530.54,206,528.78Z"/><path class="cls-46" d="M196.61,166.51c.95.18,2.76-.38,2.6,1.18-.22,2.25-2.74,1.83-4.26,2.54a1.32,1.32,0,0,1-2-1.32C193.13,166.78,194.8,166.51,196.61,166.51Z"/><path class="cls-13" d="M317.21,443.91q-7.54,1.57-15,3.58a1.5,1.5,0,0,0,.79,2.9q7.44-2,15-3.59a1.5,1.5,0,0,0,1-1.84,1.53,1.53,0,0,0-1.84-1Z"/><path class="cls-38" d="M210.91,146.16s12.39-1.57,19.26-10.35l-1.52-2.39-21.05,9.22Z"/><ellipse class="cls-4" cx="216.62" cy="133.88" rx="11.91" ry="10.44" transform="translate(-22.45 221.57) rotate(-51.86)"/><path class="cls-37" d="M158.81,121.3c-1.52-.51-3.25-.89-4.62-1.48-.48-.2-.39-.72.13-.75a17.07,17.07,0,0,1,9.43,2.18c2.81,1.57,4.83,3.26,3.68,4.91a1,1,0,0,1-1.27.13C163.25,124.58,164.59,122.33,158.81,121.3Z"/><path class="cls-47" d="M170.38,98.13c-.45.74-.87.79-1.38,1.18-.65-.24-1.53-.39-2.5-.65-6-1.59-11.77-4-16.63-5.78-7.23,1.07-12.33,3.9-16.33,8.66-.91,1.08-3.07,2.06-2,3.49,1.15,1.62,3,.31,4.44-.53,6.55-3.91,13.11-3.37,19.68-.08,1.64.82,3.34,1.61,5,2.34.85.89,1.83,1.6,1.72,2s.83.2,1.27-.79c3.18.92,4.82-2.29,6-5.19a7.13,7.13,0,0,0,.34-.92h0l0-.07c0-.06,0-.19.09-.34C170.42,100.2,171,97.12,170.38,98.13Z"/></g></g></svg>